<svg width="52" height="52" viewBox="0 0 52 52" fill="none" xmlns="http://www.w3.org/2000/svg">
<g clip-path="url(#clip0_496_4178)">
<path d="M26.0016 52.0002C25.8963 52.0001 25.7916 51.9848 25.6907 51.9547C19.9392 50.3849 14.7536 47.2097 10.7407 42.8005C-0.333176 30.5112 2.24949 13.752 2.87891 10.5172C2.91417 10.3369 2.99472 10.1685 3.11298 10.0279C3.23123 9.88727 3.38331 9.77904 3.55491 9.71337C6.90241 8.43179 10.2142 7.0852 13.4002 5.71045C17.4985 3.94462 21.5512 2.07262 25.4502 0.144285C25.6109 0.0535106 25.7916 0.00401555 25.9761 0.000234245C26.1606 -0.00354706 26.3432 0.0385034 26.5075 0.122619C30.4194 2.05854 34.4895 3.93812 38.6029 5.70937C41.789 7.0852 45.1029 8.43179 48.4482 9.7177C48.6198 9.78337 48.7719 9.8916 48.8902 10.0322C49.0084 10.1728 49.089 10.3412 49.1242 10.5215C49.7537 13.7564 52.3363 30.5155 41.2592 42.8049C37.2573 47.2023 32.0885 50.3723 26.3547 51.946C26.2408 51.9835 26.1215 52.0018 26.0016 52.0002ZM4.89932 11.5171C4.30566 15.0726 2.46832 30.3845 12.3516 41.3489C16.0239 45.3823 20.7525 48.3065 26.0016 49.7902C31.2507 48.3065 35.9793 45.3823 39.6516 41.3489C49.5337 30.3845 47.6964 15.0726 47.1027 11.5171C43.9221 10.2919 40.7782 9.0092 37.7471 7.69945C33.7561 5.98129 29.8073 4.16237 26.0016 2.2882C22.1958 4.16237 18.2471 5.98129 14.2561 7.70487C11.2249 9.0092 8.08107 10.2919 4.89932 11.5171Z" fill="#F14F0E"/>
<path d="M26.0013 36.8327C23.1281 36.8327 20.3726 35.6913 18.341 33.6597C16.3093 31.628 15.168 28.8725 15.168 25.9993C15.168 23.1262 16.3093 20.3707 18.341 18.339C20.3726 16.3074 23.1281 15.166 26.0013 15.166C26.2886 15.166 26.5642 15.2802 26.7673 15.4833C26.9705 15.6865 27.0846 15.962 27.0846 16.2493C27.0846 16.5367 26.9705 16.8122 26.7673 17.0154C26.5642 17.2185 26.2886 17.3327 26.0013 17.3327C24.2872 17.3327 22.6116 17.841 21.1864 18.7933C19.7611 19.7456 18.6503 21.0991 17.9943 22.6828C17.3384 24.2664 17.1668 26.009 17.5012 27.6901C17.8356 29.3713 18.661 30.9156 19.873 32.1276C21.0851 33.3397 22.6294 34.1651 24.3105 34.4995C25.9917 34.8339 27.7343 34.6623 29.3179 34.0063C30.9015 33.3503 32.2551 32.2395 33.2074 30.8143C34.1597 29.3891 34.668 27.7135 34.668 25.9993C34.668 25.712 34.7821 25.4365 34.9853 25.2333C35.1884 25.0302 35.464 24.916 35.7513 24.916C36.0386 24.916 36.3142 25.0302 36.5173 25.2333C36.7205 25.4365 36.8346 25.712 36.8346 25.9993C36.8315 28.8716 35.6891 31.6252 33.6581 33.6562C31.6272 35.6872 28.8735 36.8295 26.0013 36.8327Z" fill="#F14F0E"/>
<path d="M27.0836 29.2503C26.7963 29.2503 26.5208 29.1361 26.3177 28.9329L21.9844 24.5996C21.8048 24.3929 21.7101 24.126 21.7194 23.8524C21.7286 23.5788 21.8411 23.3189 22.0342 23.1248C22.2272 22.9308 22.4866 22.817 22.7602 22.8064C23.0337 22.7958 23.3011 22.8892 23.5086 23.0677L26.9861 26.5452L34.8945 16.6566C34.9834 16.5455 35.0933 16.4529 35.218 16.3843C35.3426 16.3157 35.4796 16.2723 35.621 16.2566C35.7625 16.2409 35.9056 16.2532 36.0423 16.2929C36.179 16.3325 36.3065 16.3987 36.4176 16.4876C36.5287 16.5765 36.6212 16.6864 36.6899 16.8111C36.7585 16.9357 36.8019 17.0727 36.8176 17.2141C36.8333 17.3556 36.821 17.4987 36.7813 17.6354C36.7417 17.7721 36.6755 17.8996 36.5866 18.0107L27.92 28.8441C27.8248 28.9628 27.7056 29.0602 27.5703 29.1298C27.435 29.1994 27.2865 29.2397 27.1345 29.2482L27.0836 29.2503Z" fill="#F14F0E"/>
</g>
<defs>
<clipPath id="clip0_496_4178">
<rect width="52" height="52" fill="white"/>
</clipPath>
</defs>
</svg>
