<svg width="53" height="52" viewBox="0 0 53 52" fill="none" xmlns="http://www.w3.org/2000/svg">
<g clip-path="url(#clip0_496_4171)">
<path d="M51.7764 7.37416L45.1284 0.726185C44.1601 -0.242112 42.5844 -0.242011 41.6162 0.726185L29.0993 13.243C28.7859 13.5565 28.7859 14.0645 29.0993 14.378C29.4127 14.6913 29.9208 14.6913 30.2342 14.378L42.751 1.86125C42.917 1.69529 43.1376 1.60399 43.3722 1.60399C43.6068 1.60399 43.8274 1.69529 43.9933 1.86125L50.6414 8.50922C50.8073 8.67508 50.8987 8.89567 50.8987 9.13038C50.8987 9.36499 50.8073 9.58558 50.6414 9.75143L49.0099 11.3829L44.7352 7.10837C44.4218 6.79505 43.9137 6.79505 43.6003 7.10837C43.2869 7.4219 43.2869 7.92991 43.6003 8.24343L47.8748 12.518L46.0109 14.382L44.1322 12.5033C43.8187 12.19 43.3106 12.19 42.9972 12.5033C42.6838 12.8168 42.6838 13.3248 42.9972 13.6383L44.8759 15.5169L43.0119 17.3809L41.1332 15.5022C40.8198 15.1889 40.3117 15.1889 39.9983 15.5022C39.6848 15.8157 39.6848 16.3237 39.9983 16.6373L41.877 18.5159L40.013 20.3798L35.7383 16.1051C35.425 15.7919 34.9168 15.7917 34.6034 16.1051C34.2899 16.4186 34.2899 16.9266 34.6034 17.2401L38.878 21.5148L37.0141 23.3788L35.1353 21.5001C34.8219 21.1868 34.3138 21.1868 34.0004 21.5001C33.687 21.8136 33.687 22.3216 34.0004 22.6351L35.879 24.5137L34.3021 26.0906L26.4118 18.2003L27.8794 16.7326C28.1928 16.4191 28.1928 15.9111 27.8794 15.5976C27.566 15.2843 27.0579 15.2843 26.7445 15.5976L25.2768 17.0653L10.4722 2.2612C9.44257 1.23156 8.07361 0.664536 6.61751 0.664536C5.16141 0.664638 3.79245 1.23166 2.76291 2.2613C1.73317 3.29094 1.16614 4.6598 1.16614 6.11601C1.16614 7.57211 1.73317 8.94107 2.76281 9.97071L17.5671 24.775L1.23013 41.1122C0.261832 42.0806 0.261832 43.6561 1.23013 44.6245L7.87811 51.2726C8.34712 51.7416 8.97082 52 9.63422 52C10.2976 52 10.9213 51.7416 11.3903 51.2726L27.7275 34.9355L28.8911 36.0991C29.2045 36.4124 29.7126 36.4124 30.026 36.0991C30.3395 35.7856 30.3395 35.2775 30.026 34.964L28.4199 33.3579C28.3888 33.3086 28.3522 33.2616 28.3092 33.2187C28.2663 33.1757 28.2193 33.1391 28.1701 33.108L10.7803 15.7181L12.9325 13.5659L14.2631 14.8966C14.4198 15.0532 14.6252 15.1316 14.8307 15.1316C15.0361 15.1316 15.2415 15.0532 15.3982 14.8966C15.7116 14.5831 15.7116 14.0751 15.3982 13.7615L14.0676 12.431L16.2198 10.2787L24.7083 18.7672C24.7086 18.7676 24.7089 18.768 24.7093 18.7684C24.7098 18.7688 24.7101 18.769 24.7105 18.7694L33.6562 27.7151C33.6783 27.7443 33.7019 27.773 33.7286 27.7997C33.7553 27.8264 33.7839 27.85 33.8131 27.8721L45.7231 39.7821L43.5709 41.9344L31.5545 29.9179C31.5472 29.9101 31.5407 29.9018 31.5331 29.8943L26.7412 25.1023C26.7333 25.0944 26.7247 25.0875 26.7165 25.08L18.252 16.6155C17.9386 16.3022 17.4305 16.3022 17.117 16.6155C16.8036 16.9291 16.8036 17.4371 17.117 17.7506L42.4357 43.0692L40.2833 45.2214L32.6564 37.5944C32.343 37.2811 31.8349 37.2811 31.5214 37.5944C31.208 37.9079 31.208 38.4159 31.5214 38.7295L39.7159 46.9239C39.7938 47.0018 39.8903 47.0647 39.993 47.1045L49.69 50.8693C49.8429 50.9286 50.0024 50.9575 50.1606 50.9575C50.5 50.9575 50.8334 50.8246 51.0821 50.5757C51.4468 50.2108 51.5616 49.6644 51.3746 49.1836L47.6058 39.4911C47.566 39.3887 47.5031 39.292 47.4253 39.2143L35.437 27.226L51.7764 10.8865C52.7448 9.9181 52.7448 8.34256 51.7764 7.37416ZM26.5928 33.8005L25.0179 35.375L23.1392 33.4963C22.8258 33.183 22.3177 33.183 22.0042 33.4963C21.6908 33.8099 21.6908 34.3179 22.0042 34.6314L23.8829 36.5101L22.019 38.3741L17.7443 34.0994C17.4309 33.7861 16.9228 33.7861 16.6093 34.0994C16.2959 34.4129 16.2959 34.921 16.6093 35.2345L20.884 39.5091L19.02 41.3731L17.1413 39.4944C16.8279 39.1811 16.3198 39.1811 16.0064 39.4944C15.6929 39.8079 15.6929 40.316 16.0064 40.6295L17.8851 42.5081L16.0211 44.3721L14.1424 42.4934C13.829 42.18 13.3208 42.18 13.0074 42.4934C12.694 42.8069 12.694 43.3149 13.0074 43.6284L14.8861 45.5071L13.0221 47.3711L8.74748 43.0964C8.43406 42.7831 7.92594 42.7831 7.61252 43.0964C7.2991 43.41 7.2991 43.918 7.61252 44.2315L11.8872 48.5061L10.2557 50.1376C10.0897 50.3035 9.86914 50.3949 9.63453 50.3949C9.39992 50.3949 9.17932 50.3035 9.01337 50.1376L2.36539 43.4895C2.02293 43.147 2.02293 42.5897 2.36539 42.2473L18.7024 25.9101L26.5928 33.8005ZM3.89777 8.83575C2.3981 7.33608 2.3981 4.89593 3.89777 3.39626C5.39744 1.89649 7.83758 1.89649 9.33725 3.39626L11.8739 5.93289L6.43439 11.3724L3.89777 8.83575ZM12.3655 11.8628C12.3653 11.863 12.3651 11.8631 12.365 11.8633C12.3648 11.8635 12.3647 11.8637 12.3645 11.8638L9.64529 14.5831L7.56946 12.5072L13.0089 7.06775L15.0848 9.14358L12.3655 11.8628ZM49.6293 49.1239L41.7213 46.0537L46.5557 41.2193L49.6293 49.1239Z" fill="#F14F0E"/>
</g>
<defs>
<clipPath id="clip0_496_4171">
<rect width="52" height="52" fill="white" transform="translate(0.5)"/>
</clipPath>
</defs>
</svg>
