<svg width="51" height="52" viewBox="0 0 51 52" fill="none" xmlns="http://www.w3.org/2000/svg">
<path d="M25.8911 51.9516C25.8938 51.9509 25.8965 51.9502 25.8993 51.9495C25.8867 51.8892 25.8861 51.8259 25.8933 51.7826C25.8806 51.8165 25.8692 51.8571 25.8665 51.8919C25.8715 51.9113 25.8801 51.9315 25.8911 51.9516ZM25.9419 51.6992C25.9356 51.7059 25.9281 51.7143 25.9208 51.723C25.9224 51.7204 25.9239 51.7182 25.9253 51.7164C25.9299 51.7112 25.936 51.705 25.9419 51.6992ZM25.997 51.6581C26.0023 51.6552 25.9956 51.6588 25.9901 51.6619C25.9935 51.6599 25.9962 51.6585 25.9968 51.6581L25.997 51.6581ZM26.2903 51.6999C26.3041 51.7214 26.3147 51.7467 26.3227 51.7735C26.2921 51.7278 26.2518 51.6856 26.2167 51.6592C26.243 51.6705 26.2694 51.6844 26.2903 51.6999ZM26.1139 51.6284C26.1161 51.6285 26.1185 51.6287 26.1213 51.6291C26.1165 51.6289 26.112 51.6287 26.108 51.6286C26.1101 51.6285 26.1121 51.6284 26.1139 51.6284ZM26.0375 51.6403L26.0347 51.6414L26.029 51.6433L26.0211 51.6465C25.6803 51.786 25.3079 51.7829 24.9764 51.6467L1.99819 42.2071C1.48169 41.9949 1.14453 41.4918 1.14453 40.9335V11.0665C1.14453 10.5082 1.48179 10.005 1.99818 9.79293L1.99818 9.79293L24.9764 0.353273C24.9764 0.353269 24.9764 0.353266 24.9764 0.353262C25.3117 0.21558 25.6875 0.21558 26.0228 0.353262C26.0228 0.353266 26.0228 0.353269 26.0228 0.353273L49.001 9.79292C49.5174 10.0051 49.8547 10.5082 49.8547 11.0665V40.9335C49.8547 41.4918 49.5175 41.995 49.001 42.2071L49.0895 42.4225L49.001 42.2071L28.5818 50.5956C27.1999 51.1633 26.5621 51.4252 26.2687 51.5456C26.1217 51.6059 26.0615 51.6305 26.0375 51.6403ZM26.0273 51.6444L26.0269 51.6445C26.0209 51.6469 26.0222 51.6462 26.0273 51.6444ZM25.4046 19.1155L25.4996 19.1545L25.5946 19.1155L44.4581 11.3662L45.021 11.135L44.4581 10.9037L35.4252 7.19294L35.3273 7.15271L35.2303 7.19504L16.933 15.1769L16.3919 15.413L16.938 15.6373L25.4046 19.1155ZM4.24325 13.3992L3.89826 13.2575V13.6305V39.843V40.0105L4.05326 40.0742L23.7777 48.1772L24.1227 48.3189V47.946V21.7335V21.5659L23.9677 21.5022L14.8017 17.7367L14.4567 17.595V17.968V25.0975C14.4567 25.8579 13.8402 26.4744 13.0798 26.4744C12.3195 26.4744 11.703 25.8579 11.703 25.0975V16.6313V16.4637L11.548 16.4001L4.24325 13.3992ZM25.5946 3.15435L25.4996 3.11533L25.4046 3.15435L6.54114 10.9036L5.97823 11.1349L6.54113 11.3661L12.7471 13.9156L12.845 13.9558L12.9421 13.9135L31.2393 5.9316L31.7804 5.69555L31.2343 5.47121L25.5946 3.15435ZM27.0315 21.5022L26.8765 21.5659V21.7335V47.946V48.3189L27.2215 48.1772L46.9459 40.0742L47.1009 40.0105V39.843V13.6305V13.2575L46.7559 13.3992L27.0315 21.5022Z" fill="#FF5915" stroke="#0C0C0C" stroke-width="0.5"/>
</svg>
