<svg width="52" height="52" viewBox="0 0 52 52" fill="none" xmlns="http://www.w3.org/2000/svg">
<path fill-rule="evenodd" clip-rule="evenodd" d="M20.8428 18.0979C20.8428 18.5466 20.479 18.9104 20.0303 18.9104C19.5816 18.9104 19.2178 18.5466 19.2178 18.0979V9.76835C19.2178 9.4402 19.4124 9.15745 19.6925 9.02928L31.9754 1.93778C32.2379 1.78685 32.5498 1.79965 32.7927 1.94428L37.288 4.53767L40.6296 6.46696L40.6289 6.46828L40.6397 6.47457L45.1207 9.06167C45.3773 9.20711 45.5362 9.47321 45.5358 9.76835H45.5392V24.0267C45.5392 24.348 45.3527 24.6258 45.0819 24.7577L32.8328 31.8298C32.5341 32.0165 32.2227 32.0164 31.924 31.8296L20.0214 24.9575C20.0076 24.9496 19.9943 24.9413 19.9812 24.9326H12.4277C11.9808 24.9326 11.6184 24.5703 11.6184 24.1233C11.6184 23.6763 11.9808 23.3139 12.4277 23.3139H25.1424C25.5894 23.3139 25.9518 23.6763 25.9518 24.1233C25.9518 24.5703 25.5894 24.9326 25.1424 24.9326H23.2206L31.566 29.7509V17.3627L28.6877 15.7009V18.9794H28.6859C28.6864 19.5955 28.0144 19.9962 27.4689 19.6807L24.1785 17.781C23.9077 17.6492 23.7212 17.3714 23.7212 17.0501V12.8334L20.8428 11.1716V18.0979ZM23.4764 19.726H15.9279C15.4809 19.726 15.1185 20.0884 15.1185 20.5354C15.1185 20.9824 15.4809 21.3447 15.9279 21.3447H23.4764C23.9234 21.3447 24.2858 20.9824 24.2858 20.5354C24.2858 20.0884 23.9234 19.726 23.4764 19.726ZM8.60837 33.9974C8.38575 33.61 7.89124 33.4765 7.50388 33.699L2.28875 36.7099C1.78317 36.9773 1.69471 37.5738 2.01879 37.9613L11.9855 49.8784L11.9858 49.8781C12.234 50.1754 12.6673 50.26 13.0137 50.0593L15.9651 48.3554L15.9642 48.354C16.3498 48.1307 16.4824 47.6374 16.2602 47.2509L15.5437 46.0098L16.9946 45.1722C17.9564 44.617 18.9557 44.4863 20.0309 44.7744L29.8996 47.4188C31.3826 47.8161 32.8337 47.624 34.1642 46.8559L48.7331 38.4445L48.7323 38.4431C49.8728 37.7838 50.2677 36.8907 50.1544 35.9834C50.0383 35.0524 49.3732 34.2567 48.5827 33.7245C47.2831 32.8497 45.3391 32.4902 43.7041 33.4341L36.2952 37.7116C35.5527 38.1403 34.8537 38.4621 34.1764 38.6627C34.8662 36.762 33.8883 34.0113 31.6958 33.4239L20.8032 30.5052C19.3202 30.1079 17.8691 30.2999 16.5386 31.0681L16.5394 31.0696L9.32317 35.2359L8.60837 33.9974ZM14.453 47.3565L12.7927 48.3151L3.88084 37.659L7.61083 35.5056L14.453 47.3565ZM24.8495 38.6882C24.4166 38.5725 24.1594 38.1277 24.2751 37.6948C24.3908 37.2618 24.8355 37.0047 25.2685 37.1203L31.2413 38.7207C32.1505 38.9643 32.583 38.5643 32.726 37.8337C32.9372 36.7548 32.3966 35.2917 31.2768 34.9916L20.3842 32.0729C19.3091 31.7849 18.3142 31.9148 17.3511 32.4708L17.3503 32.4694L10.1322 36.6368L14.7347 44.6086L16.1884 43.7692C17.5202 43.0004 18.9668 42.8091 20.4497 43.2064L30.3185 45.8508C31.3935 46.1388 32.3886 46.0089 33.3516 45.4528L47.9205 37.0414L47.9213 37.0429C48.6311 36.6274 48.6973 36.1857 48.3086 35.6554C47.5773 34.6579 45.7916 34.0969 44.5102 34.8367L37.1014 39.1144C35.0684 40.2882 33.0693 40.8906 30.8224 40.2885L24.8495 38.6882ZM43.9141 11.1716L33.191 17.3627V29.751L43.9141 23.5599V11.1716ZM26.1532 12.3693L27.8752 13.3635L38.6037 7.16926L36.8816 6.17496L26.1532 12.3693ZM27.0627 14.7627L25.3461 13.7716V16.5832L27.0627 17.5742V14.7627ZM40.2234 8.10252L29.4932 14.2975L32.3785 15.9634L43.1086 9.76824L40.2234 8.10252ZM24.532 11.4333L35.2621 5.23815L32.3785 3.57334L21.6483 9.76835L24.532 11.4333Z" fill="#F14F0E"/>
</svg>
