<svg width="34" height="34" viewBox="0 0 34 34" fill="none" xmlns="http://www.w3.org/2000/svg">
<path d="M23.375 13.3173L10.625 5.96484" stroke="#E9E9E9" stroke-width="1.5" stroke-linecap="round" stroke-linejoin="round"/>
<path d="M29.75 22.6664V11.333C29.7495 10.8362 29.6183 10.3482 29.3697 9.91801C29.121 9.48785 28.7636 9.13063 28.3333 8.8822L18.4167 3.21553C17.9859 2.96686 17.4974 2.83594 17 2.83594C16.5026 2.83594 16.0141 2.96686 15.5833 3.21553L5.66667 8.8822C5.23637 9.13063 4.87897 9.48785 4.63032 9.91801C4.38167 10.3482 4.25051 10.8362 4.25 11.333V22.6664C4.25051 23.1632 4.38167 23.6512 4.63032 24.0814C4.87897 24.5116 5.23637 24.8688 5.66667 25.1172L15.5833 30.7839C16.0141 31.0325 16.5026 31.1635 17 31.1635C17.4974 31.1635 17.9859 31.0325 18.4167 30.7839L28.3333 25.1172C28.7636 24.8688 29.121 24.5116 29.3697 24.0814C29.6183 23.6512 29.7495 23.1632 29.75 22.6664Z" stroke="#E9E9E9" stroke-width="1.5" stroke-linecap="round" stroke-linejoin="round"/>
<path d="M4.63281 9.85938L17.0003 17.0135L29.3678 9.85938" stroke="#E9E9E9" stroke-width="1.5" stroke-linecap="round" stroke-linejoin="round"/>
<path d="M17 31.28V17" stroke="#E9E9E9" stroke-width="1.5" stroke-linecap="round" stroke-linejoin="round"/>
</svg>
