<svg width="75" height="74" viewBox="0 0 75 74" fill="none" xmlns="http://www.w3.org/2000/svg">
<path d="M50 9.25H3.75V49.3333H50V9.25Z" stroke="white" stroke-width="2" stroke-linecap="round" stroke-linejoin="round"/>
<path d="M50 24.666H62.3333L71.5833 33.916V49.3327H50V24.666Z" stroke="white" stroke-width="2" stroke-linecap="round" stroke-linejoin="round"/>
<path d="M17.6248 64.7507C21.882 64.7507 25.3332 61.2995 25.3332 57.0423C25.3332 52.7851 21.882 49.334 17.6248 49.334C13.3676 49.334 9.9165 52.7851 9.9165 57.0423C9.9165 61.2995 13.3676 64.7507 17.6248 64.7507Z" stroke="white" stroke-width="2" stroke-linecap="round" stroke-linejoin="round"/>
<path d="M57.7083 64.7507C61.9655 64.7507 65.4167 61.2995 65.4167 57.0423C65.4167 52.7851 61.9655 49.334 57.7083 49.334C53.4511 49.334 50 52.7851 50 57.0423C50 61.2995 53.4511 64.7507 57.7083 64.7507Z" stroke="white" stroke-width="2" stroke-linecap="round" stroke-linejoin="round"/>
</svg>
