<svg width="75" height="74" viewBox="0 0 75 74" fill="none" xmlns="http://www.w3.org/2000/svg">
<path d="M53.4837 12.6895C49.17 8.37569 43.4345 6 37.334 6C31.2334 6 25.4978 8.37569 21.1841 12.6895C16.8703 17.0034 14.4946 22.7388 14.4946 28.8392C14.4946 41.1804 26.1635 51.4452 32.4325 56.9597C33.3037 57.7261 34.056 58.3879 34.6554 58.9477C35.4063 59.6492 36.3702 60 37.3339 60C38.2978 60 39.2614 59.6492 40.0125 58.9477C40.6119 58.3878 41.3642 57.7261 42.2353 56.9597C48.5043 51.4451 60.1732 41.1804 60.1732 28.8392C60.1731 22.7388 57.7975 17.0034 53.4837 12.6895ZM40.146 54.5848C39.2557 55.3679 38.487 56.0443 37.8531 56.6363C37.5619 56.9081 37.1058 56.9082 36.8145 56.6363C36.1808 56.0441 35.4119 55.3678 34.5216 54.5847C28.628 49.4004 17.6576 39.75 17.6576 28.8393C17.6576 17.9899 26.4843 9.16334 37.3338 9.16334C48.1832 9.16334 57.0098 17.9899 57.0098 28.8393C57.0099 39.75 46.0396 49.4004 40.146 54.5848Z" fill="white"/>
<path d="M37.3331 18.5605C31.7832 18.5605 27.2681 23.0756 27.2681 28.6255C27.2681 34.1754 31.7832 38.6904 37.3331 38.6904C42.883 38.6904 47.398 34.1754 47.398 28.6255C47.398 23.0756 42.883 18.5605 37.3331 18.5605ZM37.3331 35.5271C33.5274 35.5271 30.4313 32.4309 30.4313 28.6254C30.4313 24.8198 33.5274 21.7237 37.3331 21.7237C41.1387 21.7237 44.2348 24.8198 44.2348 28.6254C44.2348 32.4309 41.1387 35.5271 37.3331 35.5271Z" fill="white"/>
</svg>
