<svg width="55" height="58" viewBox="0 0 55 58" fill="none" xmlns="http://www.w3.org/2000/svg">
<path d="M54.9795 22.6357V4.95117L27.4967 22.6357L0.0195312 4.95117V22.6357L27.4967 40.3147L54.9795 22.6357Z" fill="white"/>
<path d="M32.0371 43.316L54.9792 57.9994V40.3148L45.7424 34.457L32.0371 43.316Z" fill="white"/>
<path d="M22.7505 43.316L0.0195312 57.9994V40.3148L9.04521 34.457L22.7505 43.316Z" fill="white"/>
<path d="M19.6836 13.533C19.8781 13.1995 20.056 12.8827 20.2394 12.5715C20.8952 11.46 21.5454 10.2984 22.2068 9.17018C22.2391 9.12367 22.2563 9.06842 22.2563 9.0118C22.2563 8.95519 22.2391 8.89992 22.2068 8.85341L19.7781 4.6518C19.7781 4.60734 19.7281 4.56288 19.6892 4.49618H24.7244C24.7831 4.50131 24.842 4.48801 24.8928 4.45812C24.9436 4.42824 24.9838 4.38325 25.0078 4.32944C25.8082 2.92891 26.6196 1.5506 27.431 0.127833L27.5088 0C27.5366 0.0500192 27.5644 0.083366 27.5866 0.12227C28.3369 1.52281 29.0927 2.90112 29.8375 4.32944C29.8628 4.38467 29.9049 4.43051 29.9578 4.46045C30.0107 4.49038 30.0716 4.50289 30.132 4.49618H35.334L35.2507 4.64623C34.3763 6.15793 33.5019 7.66962 32.6274 9.18131C32.5963 9.23032 32.5798 9.28718 32.5798 9.34525C32.5798 9.40332 32.5963 9.4602 32.6274 9.50921C33.324 10.7912 34.0169 12.0787 34.706 13.3718C34.7338 13.4163 34.756 13.4663 34.7894 13.533H30.2988C30.243 13.5285 30.1871 13.5409 30.1385 13.5687C30.09 13.5965 30.0509 13.6382 30.0264 13.6886C29.2187 15.0928 28.4092 16.4989 27.5977 17.9069L27.5144 18.0458L27.431 17.9069L25.0078 13.7053C24.9851 13.6489 24.9446 13.6015 24.8924 13.5704C24.8402 13.5393 24.7792 13.5261 24.7189 13.533H19.6836Z" fill="white"/>
</svg>
