<svg width="34" height="34" viewBox="0 0 34 34" fill="none" xmlns="http://www.w3.org/2000/svg">
<path d="M17.9661 23.8082H4.7811C4.35857 23.8077 3.95349 23.6397 3.65472 23.3409C3.35595 23.0421 3.1879 22.637 3.18744 22.2145V11.9494H27.6977V14.3313C27.6999 14.4708 27.7568 14.6038 27.8562 14.7016C27.9556 14.7995 28.0895 14.8543 28.229 14.8543C28.3684 14.8543 28.5023 14.7995 28.6017 14.7016C28.7011 14.6038 28.758 14.4707 28.7602 14.3313V8.20102C28.7593 7.49683 28.4792 6.82172 27.9813 6.32378C27.4833 5.82584 26.8082 5.54574 26.104 5.54492H4.7811C4.07691 5.54575 3.4018 5.82585 2.90387 6.32379C2.40593 6.82172 2.12583 7.49683 2.125 8.20102V22.2145C2.12583 22.9187 2.40593 23.5938 2.90386 24.0917C3.4018 24.5897 4.07691 24.8698 4.7811 24.8706H17.9661C18.1053 24.868 18.2379 24.8109 18.3355 24.7116C18.433 24.6123 18.4876 24.4786 18.4876 24.3394C18.4876 24.2002 18.433 24.0665 18.3355 23.9672C18.2379 23.8678 18.1053 23.8107 17.9661 23.8082ZM3.18744 8.20102C3.1879 7.7785 3.35595 7.37341 3.65472 7.07464C3.95349 6.77588 4.35857 6.60782 4.7811 6.60736H26.104C26.5266 6.60782 26.9316 6.77588 27.2304 7.07464C27.5292 7.37341 27.6972 7.7785 27.6977 8.20102V8.99266H3.18744V8.20102ZM3.18744 10.0551H27.6977V10.8869H3.18744V10.0551Z" fill="#E9E9E9"/>
<path d="M5.97114 20.3574C5.83205 20.3601 5.69957 20.4173 5.60216 20.5166C5.50475 20.616 5.45019 20.7495 5.4502 20.8887C5.4502 21.0278 5.50477 21.1613 5.60218 21.2607C5.6996 21.36 5.83208 21.4172 5.97117 21.4199H9.75919C9.89828 21.4171 10.0308 21.36 10.1282 21.2607C10.2256 21.1613 10.2801 21.0277 10.2801 20.8886C10.2801 20.7495 10.2256 20.6159 10.1281 20.5166C10.0307 20.4173 9.89825 20.3601 9.75916 20.3574H5.97114Z" fill="#E9E9E9"/>
<path d="M31.6548 17.7682C31.5908 17.4643 31.5591 17.0674 31.2071 16.9654L25.4275 15.1054C25.3215 15.0716 25.2077 15.0716 25.1017 15.1054L19.3226 16.9654C18.9715 17.0683 18.9396 17.4625 18.8744 17.7671C18.0236 22.0213 19.6826 25.8309 23.1003 27.4726L25.0348 28.4017C25.1065 28.4362 25.185 28.4541 25.2646 28.4541C25.3442 28.4541 25.4227 28.4362 25.4944 28.4017L27.4294 27.4725C30.8471 25.8312 32.5056 22.0216 31.6548 17.7682ZM26.9698 26.5149L25.2646 27.3335L23.5599 26.5149C20.5668 25.0865 19.1383 21.652 19.9353 17.8847L25.2646 16.1691L30.5944 17.8844C31.3897 21.6532 29.9627 25.0865 26.9698 26.5149Z" fill="#E9E9E9"/>
<path d="M27.8343 19.9496L25.02 22.4574L23.7796 21.2173C23.6793 21.1208 23.5452 21.0674 23.4061 21.0687C23.2669 21.0701 23.1339 21.1259 23.0355 21.2243C22.9371 21.3227 22.8812 21.4558 22.8799 21.595C22.8786 21.7341 22.9319 21.8682 23.0284 21.9685L24.6231 23.5631C24.719 23.659 24.8478 23.7146 24.9834 23.7186C25.1189 23.7225 25.2508 23.6744 25.352 23.5842L28.5408 20.7429C28.6427 20.6483 28.7035 20.5176 28.7101 20.3787C28.7166 20.2399 28.6686 20.104 28.5761 20.0002C28.4836 19.8964 28.3542 19.8329 28.2155 19.8235C28.0768 19.814 27.94 19.8593 27.8343 19.9496Z" fill="#E9E9E9"/>
</svg>
