<svg width="49" height="21" viewBox="0 0 49 21" fill="none" xmlns="http://www.w3.org/2000/svg">
<g clip-path="url(#clip0_474_3026)">
<path d="M8.95314 2.59384C8.37892 3.27333 7.45998 3.80946 6.54114 3.7328C6.42629 2.81405 6.8761 1.83769 7.40256 1.23467C7.97678 0.536033 8.98185 0.0382813 9.79542 0C9.89113 0.957127 9.51779 1.89511 8.95314 2.59384ZM9.78595 3.91474C8.45549 3.83817 7.31652 4.67079 6.68479 4.67079C6.04358 4.67079 5.07678 3.95302 4.02395 3.97216C2.6553 3.9913 1.38226 4.76649 0.683531 6.00126C-0.752208 8.47068 0.310288 12.127 1.69808 14.137C2.37767 15.1324 3.19124 16.2235 4.26321 16.1852C5.27785 16.1469 5.67981 15.5249 6.905 15.5249C8.13967 15.5249 8.49386 16.1852 9.56583 16.1661C10.6761 16.1469 11.3748 15.1708 12.0544 14.1753C12.8296 13.0459 13.1455 11.9451 13.1647 11.8877C13.1455 11.8685 11.0207 11.0551 11.0016 8.60467C10.9824 6.55643 12.6766 5.58016 12.7531 5.52274C11.7959 4.10614 10.3028 3.95302 9.78595 3.91474ZM17.4719 1.13896V16.0609H19.7881V10.9593H22.9945C25.9233 10.9593 27.9812 8.94939 27.9812 6.03963C27.9812 3.12997 25.9616 1.13906 23.0711 1.13906L17.4719 1.13896ZM19.7881 3.09159H22.4585C24.4685 3.09159 25.6171 4.16356 25.6171 6.04911C25.6171 7.93465 24.4685 9.01629 22.4489 9.01629H19.7881V3.09159ZM32.2117 16.1756C33.6666 16.1756 35.0161 15.4387 35.6287 14.271H35.6765V16.0608H37.8206V8.63338C37.8206 6.47987 36.0977 5.09198 33.4463 5.09198C30.9865 5.09198 29.1679 6.49901 29.1009 8.4324H31.1876C31.3598 7.51356 32.2116 6.91053 33.3794 6.91053C34.796 6.91053 35.5904 7.57098 35.5904 8.7866V9.60965L32.6998 9.78191C30.0102 9.94461 28.5554 11.0454 28.5554 12.9597C28.5554 14.8931 30.0581 16.1756 32.2117 16.1756ZM32.8338 14.4049C31.5992 14.4049 30.8142 13.8116 30.8142 12.9022C30.8142 11.9643 31.5704 11.4187 33.0157 11.3326L35.5904 11.1699V12.0121C35.5904 13.4095 34.4036 14.4049 32.8338 14.4049M40.6825 20.1191C42.9413 20.1191 44.0037 19.2578 44.9322 16.6447L48.9999 5.23554H46.6453L43.9175 14.0507H43.8697L41.1418 5.23554H38.7203L42.6445 16.0991L42.4339 16.7595C42.0798 17.8794 41.5055 18.3101 40.4814 18.3101C40.2996 18.3101 39.9455 18.291 39.8018 18.2718V20.0617C39.9358 20.1 40.51 20.1191 40.6824 20.1191" fill="#E9E9E9"/>
</g>
<defs>
<clipPath id="clip0_474_3026">
<rect width="49" height="20.1934" fill="white"/>
</clipPath>
</defs>
</svg>
