<svg width="74" height="74" viewBox="0 0 74 74" fill="none" xmlns="http://www.w3.org/2000/svg">
<path d="M37 64.9999C36.8765 64.9998 36.7536 64.9818 36.6353 64.9465C29.8883 63.105 23.8053 59.3802 19.0979 54.208C6.10749 39.7918 9.13713 20.1321 9.87548 16.3374C9.91686 16.1259 10.0113 15.9284 10.1501 15.7634C10.2888 15.5985 10.4672 15.4715 10.6685 15.3945C14.5953 13.8911 18.4802 12.3114 22.2177 10.6988C27.0253 8.62731 31.7794 6.43133 36.3531 4.16926C36.5417 4.06277 36.7536 4.00471 36.9701 4.00027C37.1866 3.99584 37.4007 4.04517 37.5935 4.14384C42.1824 6.41481 46.9569 8.61969 51.7822 10.6975C55.5197 12.3114 59.4072 13.8911 63.3315 15.3995C63.5328 15.4766 63.7112 15.6035 63.8499 15.7685C63.9886 15.9335 64.0831 16.131 64.1245 16.3425C64.8629 20.1372 67.8925 39.7969 54.8983 54.2131C50.2037 59.3716 44.1404 63.0903 37.4143 64.9363C37.2807 64.9803 37.1407 65.0018 37 64.9999ZM12.2456 17.5104C11.5492 21.6812 9.39384 39.6431 20.9876 52.5051C25.2955 57.2366 30.8424 60.6669 37 62.4074C43.1575 60.6669 48.7045 57.2366 53.0124 52.5051C64.6049 39.6431 62.4496 21.6812 61.7531 17.5104C58.022 16.0731 54.3341 14.5684 50.7783 13.032C46.0966 11.0165 41.4644 8.88275 37 6.68422C32.5356 8.88275 27.9034 11.0165 23.2217 13.0384C19.6659 14.5684 15.978 16.0731 12.2456 17.5104Z" fill="white"/>
<path d="M36.9999 49.6775C33.4369 49.6775 30.0197 48.2621 27.5003 45.7427C24.9808 43.2232 23.5654 39.8061 23.5654 36.2431C23.5654 32.68 24.9808 29.2629 27.5003 26.7435C30.0197 24.224 33.4369 22.8086 36.9999 22.8086C37.3562 22.8086 37.6979 22.9501 37.9499 23.2021C38.2018 23.454 38.3433 23.7957 38.3433 24.152C38.3433 24.5083 38.2018 24.8501 37.9499 25.102C37.6979 25.3539 37.3562 25.4955 36.9999 25.4955C34.8742 25.4955 32.7963 26.1258 31.0289 27.3068C29.2614 28.4877 27.8839 30.1663 27.0704 32.1301C26.257 34.094 26.0441 36.255 26.4588 38.3398C26.8735 40.4246 27.8971 42.3397 29.4002 43.8428C30.9033 45.3458 32.8183 46.3694 34.9032 46.7841C36.988 47.1988 39.149 46.986 41.1128 46.1725C43.0767 45.3591 44.7552 43.9815 45.9362 42.2141C47.1171 40.4467 47.7475 38.3687 47.7475 36.2431C47.7475 35.8868 47.889 35.545 48.141 35.2931C48.3929 35.0412 48.7346 34.8996 49.0909 34.8996C49.4472 34.8996 49.7889 35.0412 50.0409 35.2931C50.2928 35.545 50.4344 35.8868 50.4344 36.2431C50.4305 39.8049 49.0138 43.2197 46.4952 45.7384C43.9766 48.257 40.5617 49.6736 36.9999 49.6775Z" fill="white"/>
<path d="M38.2714 38.3128C37.9344 38.3127 37.6112 38.1788 37.3729 37.9404L32.2896 32.8571C32.079 32.6147 31.9679 32.3016 31.9788 31.9807C31.9896 31.6597 32.1215 31.3548 32.348 31.1272C32.5745 30.8995 32.8788 30.7661 33.1997 30.7537C33.5206 30.7412 33.8343 30.8507 34.0777 31.0602L38.157 35.1395L47.4341 23.5394C47.5384 23.4091 47.6673 23.3006 47.8136 23.2201C47.9598 23.1396 48.1205 23.0887 48.2864 23.0703C48.4523 23.0518 48.6202 23.0663 48.7806 23.1128C48.9409 23.1593 49.0905 23.2369 49.2208 23.3412C49.3512 23.4455 49.4597 23.5744 49.5402 23.7207C49.6207 23.8669 49.6716 24.0276 49.69 24.1935C49.7084 24.3594 49.694 24.5274 49.6475 24.6877C49.601 24.848 49.5234 24.9976 49.4191 25.128L39.2525 37.8362C39.1408 37.9755 39.0011 38.0897 38.8423 38.1714C38.6836 38.2531 38.5094 38.3004 38.3311 38.3102L38.2714 38.3128Z" fill="white"/>
</svg>
