<svg width="35" height="35" viewBox="0 0 35 35" fill="none" xmlns="http://www.w3.org/2000/svg">
<path d="M16.4062 26.7969C21.5326 26.7969 25.7031 22.6263 25.7031 17.5C25.7031 12.3737 21.5326 8.20312 16.4062 8.20312C11.2799 8.20312 7.10938 12.3737 7.10938 17.5C7.10938 22.6263 11.2799 26.7969 16.4062 26.7969ZM15.8594 9.31554V10.3906C15.8594 10.6926 16.1042 10.9375 16.4062 10.9375C16.7083 10.9375 16.9531 10.6926 16.9531 10.3906V9.31554C21.0414 9.58603 24.3202 12.8648 24.5907 16.9531H23.5156C23.2136 16.9531 22.9688 17.198 22.9688 17.5C22.9688 17.802 23.2136 18.0469 23.5156 18.0469H24.5907C24.3202 22.1352 21.0414 25.414 16.9531 25.6845V24.6094C16.9531 24.3074 16.7083 24.0625 16.4062 24.0625C16.1042 24.0625 15.8594 24.3074 15.8594 24.6094V25.6845C11.7711 25.414 8.49229 22.1352 8.22179 18.0469H9.29688C9.59889 18.0469 9.84375 17.802 9.84375 17.5C9.84375 17.198 9.59889 16.9531 9.29688 16.9531H8.22179C8.49222 12.8648 11.771 9.58597 15.8594 9.31554Z" fill="#F14F0E"/>
<path d="M29.1215 14.7656H28.1243C28.0219 14.3269 27.8949 13.8976 27.7459 13.4787L28.5113 13.037C29.2294 12.6232 29.4769 11.7018 29.0626 10.9826L28.3789 9.79856C27.9631 9.0786 27.0444 8.83244 26.3241 9.24848L25.5535 9.69356C25.3867 9.49833 25.2136 9.30857 25.0347 9.1244L24.1969 4.5165C24.0772 3.85725 23.5396 3.36561 22.8873 3.29191L22.5671 1.37081C22.4347 0.576543 21.7541 0 20.9488 0H11.8644C11.0591 0 10.3785 0.576543 10.2462 1.37088L9.92596 3.29191C9.27368 3.36561 8.7361 3.85725 8.61633 4.51637L7.77845 9.12434C3.23693 13.8015 3.24411 21.2058 7.77845 25.8756L8.61633 30.4834C8.7361 31.1427 9.27368 31.6343 9.92596 31.708L10.2462 33.6291C10.3785 34.4235 11.0591 35 11.8644 35H20.9488C21.7542 35 22.4348 34.4235 22.5671 33.6291L22.8873 31.708C23.5396 31.6343 24.0772 31.1427 24.1969 30.4836L25.0348 25.8756C25.2136 25.6914 25.3867 25.5017 25.5536 25.3064C26.3233 25.751 26.5717 25.9539 27.0743 25.9539C27.5934 25.9539 28.0988 25.6865 28.379 25.2014L29.0628 24.0169C29.4769 23.2982 29.2295 22.3768 28.5116 21.9633L27.7459 21.5213C27.8949 21.1024 28.0219 20.6731 28.1243 20.2344H29.1215C29.9507 20.2344 30.6254 19.5597 30.6254 18.7305V16.2695C30.6254 15.4403 29.9507 14.7656 29.1215 14.7656ZM26.8712 10.1956C27.0664 10.0826 27.3177 10.1479 27.4317 10.3454L28.115 11.5289C28.228 11.7251 28.1608 11.9764 27.9649 12.0894L27.3283 12.4568C27.0196 11.7911 26.6524 11.158 26.2323 10.5645L26.8712 10.1956ZM11.325 1.55073C11.3692 1.28598 11.596 1.09375 11.8644 1.09375H20.9488C21.2173 1.09375 21.4442 1.28598 21.4883 1.55073L21.7767 3.28125H11.0366L11.325 1.55073ZM10.0957 4.375H22.7176C22.9157 4.375 23.0853 4.51671 23.1208 4.71215L23.7086 7.945C19.3949 4.64051 13.4149 4.64324 9.10462 7.945L9.69245 4.71201C9.72792 4.51671 9.89752 4.375 10.0957 4.375ZM16.4066 6.5625C22.4376 6.5625 27.3441 11.469 27.3441 17.5C27.3441 23.531 22.4376 28.4375 16.4066 28.4375C10.3757 28.4375 5.46913 23.531 5.46913 17.5C5.46913 11.469 10.3757 6.5625 16.4066 6.5625ZM21.4883 33.4493C21.4441 33.714 21.2173 33.9062 20.9488 33.9062H11.8644C11.596 33.9062 11.3691 33.714 11.325 33.4493L11.0366 31.7188H21.7767L21.4883 33.4493ZM22.7176 30.625C21.3419 30.625 11.4704 30.625 10.0957 30.625C9.89752 30.625 9.72792 30.4833 9.69245 30.2879L9.10462 27.055C13.4184 30.3595 19.3984 30.3568 23.7086 27.055L23.1208 30.288C23.0853 30.4833 22.9157 30.625 22.7176 30.625ZM27.9652 22.9107C28.1609 23.0234 28.2281 23.2747 28.1154 23.4704L27.4318 24.6544C27.3182 24.8512 27.0675 24.9177 26.8712 24.8043L26.2324 24.4353C26.6525 23.8419 27.0198 23.2088 27.3283 22.5431L27.9652 22.9107ZM29.5316 18.7305C29.5316 18.9567 29.3477 19.1406 29.1215 19.1406H28.3256C28.4752 18.0481 28.4755 16.9537 28.3256 15.8594H29.1215C29.3477 15.8594 29.5316 16.0433 29.5316 16.2695V18.7305Z" fill="#F14F0E"/>
<path d="M16.0195 17.8867C16.2331 18.1002 16.5793 18.1001 16.7929 17.8867L21.1679 13.5117C21.3815 13.298 21.3815 12.9519 21.1679 12.7382C20.9543 12.5248 20.6081 12.5248 20.3945 12.7382L16.4062 16.7266L14.0586 14.3789C13.845 14.1654 13.4988 14.1654 13.2852 14.3789C13.0716 14.5925 13.0716 14.9387 13.2852 15.1523L16.0195 17.8867Z" fill="#F14F0E"/>
</svg>
